<?xml version="1.0" encoding="UTF-8"?><svg id="Layer_1" xmlns="http://www.w3.org/2000/svg" viewBox="0 0 1827.36 372.88"><path d="M430.83,62c-10.31-17.94-22.66-32.27-36.71-42.6-16.08-11.82-34.28-18.07-52.64-18.07s-36.57,6.25-52.64,18.07c-14.04,10.33-26.39,24.66-36.71,42.6-2.89,5.02-5.58,10.27-8.08,15.73-5.33,11.65-21.72,11.65-27.05,0-2.5-5.46-5.19-10.71-8.08-15.73-10.31-17.94-22.66-32.27-36.71-42.6C156.15,7.58,137.94,1.33,119.58,1.33s-36.57,6.25-52.64,18.07c-14.04,10.33-26.39,24.66-36.71,42.6C10.74,95.9,0,140.33,0,187.11s10.74,91.21,30.23,125.11c10.31,17.94,22.66,32.27,36.71,42.6,16.08,11.82,34.28,18.07,52.64,18.07s36.57-6.25,52.64-18.07c14.04-10.33,26.39-24.66,36.71-42.6,2.89-5.02,5.58-10.27,8.08-15.73,5.33-11.65,21.72-11.65,27.05,0,2.5,5.46,5.19,10.71,8.08,15.73,10.32,17.94,22.67,32.27,36.71,42.6,16.08,11.82,34.28,18.07,52.64,18.07s36.57-6.25,52.64-18.07c14.04-10.33,26.39-24.66,36.71-42.6,19.5-33.9,30.23-78.33,30.23-125.11s-10.74-91.21-30.23-125.1ZM304.14,91.91c11.18-19.43,24.79-30.58,37.34-30.58s26.16,11.15,37.34,30.58c5.26,9.15,9.69,19.7,13.17,31.19,1.86,6.14-2.69,12.35-9.11,12.35h-82.8c-6.42,0-10.97-6.21-9.11-12.35,3.48-11.49,7.91-22.04,13.17-31.19ZM82.24,91.91c11.18-19.43,24.79-30.58,37.34-30.58s26.16,11.15,37.34,30.58c5.26,9.15,9.69,19.7,13.17,31.19,1.86,6.14-2.69,12.35-9.11,12.35h-82.8c-6.42,0-10.97-6.21-9.11-12.35,3.48-11.49,7.91-22.04,13.17-31.19ZM156.92,282.3c-11.18,19.43-24.79,30.58-37.34,30.58s-26.16-11.15-37.34-30.58c-9.84-17.11-16.76-39.13-20.05-63.05-1.01-7.3,4.72-13.8,12.09-13.8h14.34c6.74,0,12.2,5.46,12.2,12.2v4.91c0,18.28,14.82,33.1,33.1,33.1h.79c18.28,0,33.1-14.82,33.1-33.1v-12.03c0-2.8,2.27-5.08,5.08-5.08h0c3,0,5.36,2.6,5.06,5.59-2.74,27.07-10.07,52.2-21.03,71.26ZM378.82,282.3c-11.18,19.43-24.79,30.58-37.34,30.58s-26.16-11.15-37.34-30.58c-9.84-17.11-16.76-39.13-20.05-63.05-1.01-7.3,4.72-13.8,12.09-13.8h14.34c6.74,0,12.2,5.46,12.2,12.2v4.91c0,18.28,14.82,33.1,33.1,33.1h.79c18.28,0,33.1-14.82,33.1-33.1v-12.03c0-2.8,2.27-5.08,5.08-5.08h0c3,0,5.36,2.6,5.06,5.59-2.74,27.07-10.07,52.2-21.03,71.26Z"/><path d="M1801.59,25.65l-4.57-1.56c-20.27-6.93-42.12,4.1-48.68,24.49-8.27,25.72-18.14,52.79-26.69,73.27-4.9,11.74-21.36,12.24-26.97.82-10.67-21.74-22.46-49.66-31.91-75.28-7.36-19.96-29.72-29.93-49.55-22.22l-5.96,2.32c-6.99,2.72-12.74,7.28-16.89,12.92-5.34,7.26-15.83,8.07-21.72,1.25-10.82-12.53-25.34-21.88-42.29-26.14-17.63-4.43-35.62-6.96-51.77-6.96-30.29,0-61.11,10.63-85.02,30.29-15.54,12.77-24.66,25.79-28.04,31.07-.63.98-1.23,1.96-1.82,2.93-5.78,9.6-20.25,8.22-24.06-2.32-4.51-12.5-11.77-25.23-23.37-35.67-12.93-11.63-28.1-17.56-32.63-19.29-21.68-8.29-40.08-7.01-51.97-7.01-30.29,0-61.11,10.63-85.02,30.29-18.76,14.95-32.18,33.71-39.93,55.71-2.49,7.06-12.32,7.26-14.89.23-18.15-49.54-64.93-85.17-119.44-85.17-36.67,0-71.74,15.94-94.05,43.04-3.12,3.83-9.27.76-8.09-4.03.77-3.13,1.54-6.26,2.31-9.39,2.76-11.59-5.77-23.13-17.68-23.23-5.91-.05-11.65.61-17.22,1.96-17.25,4.21-18.27,16.04-33.64,18.7-3,.52-8.85,1.45-15.09-1.3-1.42-.63-2.71-1.37-3.87-2.2-11.34-8.07-24.94-12.34-38.72-10.4l-3.42.48c-4.76.66-11.62,2.41-18.09,7.28-2.05,1.55-3.84,3.24-5.4,5.04-8.49,9.75-22.97,10.16-32.18,1.09-10.18-10.01-22.98-17.47-37.59-21.14-17.63-4.43-35.62-6.96-51.77-6.96-30.29,0-61.11,10.63-85.02,30.29-31.35,24.97-47.82,60.57-47.82,104.15,0,72.8,52.07,128.59,120.09,128.59,6.59,0,13.01-.6,19.36-1.75,13.85-2.52,22.14,15.29,10.73,23.54-7.88,5.7-18.23,8.5-31.16,8.5s-26.45-2.24-40.23-6.94c-16.1-5.49-34.43.87-42.78,15.69-10.89,19.36-1.51,43.33,18.98,50.64,24.3,8.68,49.48,13.41,72.53,13.41,40.38,0,75.99-16.48,97.24-44.64,12.37-16.87,18.39-34.29,20.87-64.36.43-5.23,6.17-7.92,10.67-5.23,3.35,2.01,7.27,3.16,11.48,3.16h37.08c12.16,0,21.9-9.95,21.65-22.1v-.21s-1.07-25.51-1.07-25.51v-71.74c0-7.2,1-11.91,2.99-18.48.13-.4.28-.83.41-1.23,7.99-21.38,20.69-30.77,40.7-30.77h.37c9.22-.06,16.11,8.56,13.87,17.51-2.6,10.39-3.96,20.94-3.96,31.38,0,73.86,53.14,129.12,124.34,129.12,56.46,0,103.47-34.02,122.11-83.39,2.62-6.94,12.47-6.74,14.83.29,16.58,49.3,59.84,83.1,112.77,83.1,6.59,0,13.01-.6,19.36-1.75,13.85-2.52,22.14,15.29,10.73,23.54-7.88,5.7-18.23,8.5-31.16,8.5s-26.45-2.24-40.23-6.94c-16.1-5.49-34.43.87-42.78,15.69-10.89,19.36-1.51,43.33,18.98,50.64,24.3,8.68,49.48,13.41,72.53,13.41,40.38,0,75.99-16.48,97.24-44.64,17.54-23.91,22.32-48.89,22.32-109.46v-4.25l.05-11.43c.03-6.98,9.55-9.14,12.5-2.81,19.45,41.81,59.44,69.5,107.35,69.5,6.59,0,13.01-.6,19.36-1.75,13.85-2.52,22.14,15.29,10.73,23.54-7.88,5.7-18.23,8.5-31.16,8.5s-26.45-2.24-40.23-6.94c-16.1-5.49-34.43.87-42.78,15.69-10.89,19.36-1.51,43.33,18.98,50.64,24.3,8.68,49.48,13.41,72.53,13.41,40.38,0,75.99-16.48,97.24-44.64,17.54-23.91,22.32-48.89,22.32-109.46v-4.25c1.68-28.57,2.31-59.01,1.44-91.11,0-.14,0-.28-.01-.42-.22-7.86,10.49-10.4,13.73-3.24,13.6,29.98,30.18,61.34,48.38,91.34,7.82,12.89,7.61,29.16-.89,41.61-10.3,15.07-23.76,32.34-37.62,48.53-12.1,14.13-13.22,35.17-1.45,49.57,15.31,18.73,43.21,18.56,58.37,1.05,64.68-74.68,103.13-144.08,154.1-278.5,7.62-20.1-2.95-42.53-23.29-49.5ZM601.74,197.61c-1.18.07-2.37.1-3.59.1-30.82,0-54.2-24.97-54.2-57.92s22.85-56.86,55.26-56.86c.11,0,.21,0,.32,0,15.79.06,28.41,13.22,28.49,29.01l.3,56.46c.08,15.17-11.45,28.3-26.59,29.21ZM967.36,194.53c-28.69,0-50.48-23.38-50.48-54.73s24.14-54.4,54.44-51.89c22.96,1.9,42.32,19.03,47.32,41.52,7.63,34.37-18.75,65.1-51.28,65.1ZM1235.53,197.61c-1.18.07-2.37.1-3.59.1-30.82,0-54.2-24.97-54.2-57.92s22.85-56.86,55.26-56.86c.11,0,.21,0,.32,0,15.79.06,28.41,13.22,28.49,29.01l.3,56.46c.08,15.17-11.45,28.3-26.59,29.21ZM1482.43,197.61c-1.18.07-2.37.1-3.59.1-30.82,0-54.2-24.97-54.2-57.92s22.85-56.86,55.26-56.86c.11,0,.21,0,.32,0,15.79.06,28.41,13.22,28.49,29.01l.3,56.46c.08,15.17-11.45,28.3-26.59,29.21Z"/></svg>