<?xml version="1.0" encoding="UTF-8"?><svg id="Layer_1" xmlns="http://www.w3.org/2000/svg" viewBox="0 0 458.24 370.88"><path d="M66.2,268.07c-5.05-1.27-10.2-1.99-14.82-1.99-8.67,0-17.49,3.04-24.34,8.67-8.97,7.15-13.69,17.34-13.69,29.81,0,20.84,14.91,36.81,34.37,36.81.15,0,.3,0,.46,0,5.62-.08,6.04,8.37.42,8.64-.39.02-.78.03-1.18.03-3.83,0-7.66-.66-11.66-2.04-4.89-1.69-10.28.56-12.47,5.25h0c-2.52,5.4.18,11.78,5.8,13.79,6.96,2.48,14.16,3.84,20.76,3.84,11.56,0,21.75-4.72,27.83-12.78,5.02-6.84,6.39-13.99,6.39-31.33v-1.22l.15-32.85c0-.24,0-.49,0-.75.18-11.17-7.21-21.15-18.04-23.87ZM53.62,320.2c-.34.02-.68.03-1.03.03-8.82,0-15.51-7.15-15.51-16.58s6.54-16.27,15.82-16.27c.03,0,.06,0,.09,0,4.52.02,8.13,3.78,8.16,8.3l.09,16.16c.02,4.34-3.28,8.1-7.61,8.36ZM275.14,268.07c-5.05-1.27-10.2-1.99-14.82-1.99-8.67,0-17.49,3.04-24.34,8.67-8.97,7.15-13.69,17.34-13.69,29.81,0,20.84,14.91,36.81,34.37,36.81.15,0,.3,0,.46,0,5.62-.08,6.04,8.37.42,8.64-.39.02-.78.03-1.18.03-3.83,0-7.66-.66-11.66-2.04-4.89-1.69-10.28.56-12.47,5.25-2.52,5.4.18,11.78,5.8,13.79,6.96,2.48,14.16,3.84,20.76,3.84,11.56,0,21.75-4.72,27.83-12.78,5.02-6.84,6.39-13.99,6.39-31.33v-1.22l.15-32.85c0-.24,0-.49,0-.75.18-11.17-7.21-21.15-18.04-23.87ZM262.56,320.2c-.34.02-.68.03-1.03.03-8.82,0-15.51-7.15-15.51-16.58s6.54-16.27,15.82-16.27c.03,0,.06,0,.09,0,4.52.02,8.13,3.78,8.16,8.3l.09,16.16c.02,4.34-3.28,8.1-7.61,8.36ZM351.94,268.07c-5.05-1.27-10.2-1.99-14.82-1.99-8.67,0-17.49,3.04-24.34,8.67-8.97,7.15-13.69,17.34-13.69,29.81,0,20.84,14.91,36.81,34.37,36.81.15,0,.3,0,.46,0,5.62-.08,6.04,8.37.42,8.64-.39.02-.78.03-1.18.03-3.83,0-7.66-.66-11.66-2.04-4.89-1.69-10.28.56-12.47,5.25h0c-2.52,5.4.18,11.78,5.8,13.79,6.96,2.48,14.16,3.84,20.76,3.84,11.56,0,21.75-4.72,27.83-12.78,5.02-6.84,6.39-13.99,6.39-31.33v-1.22l.15-32.85c0-.24,0-.49,0-.75.18-11.17-7.21-21.15-18.04-23.87ZM339.36,320.2c-.34.02-.68.03-1.03.03-8.82,0-15.51-7.15-15.51-16.58s6.54-16.27,15.82-16.27c.03,0,.06,0,.09,0,4.52.02,8.13,3.78,8.16,8.3l.09,16.16c.02,4.34-3.28,8.1-7.61,8.36ZM143.02,274.86l-2.06,8.66c-.96,4.05-4.58,6.9-8.74,6.9h-.07c-5.73,0-9.37,2.7-11.66,8.83-.03.09-.07.2-.1.29-.58,1.9-.87,3.25-.87,5.33v20.53l.3,7.3v.06c.08,3.47-2.71,6.32-6.17,6.32h-10.63c-3.67,0-6.6-3.08-6.4-6.75.17-3.08.32-6.74.4-10.13l-.76-38.18c-.03-.5-.06-1.03-.11-1.6-.47-5.99,3.82-11.31,9.76-12.15l.83-.12c4-.56,7.96.66,11.26,2.98.32.23.68.43,1.07.61,1.79.79,3.46.52,4.32.37,4.4-.76,4.69-4.15,9.63-5.35,1.54-.37,3.12-.56,4.74-.56,3.49,0,6.05,3.26,5.25,6.65ZM180.51,266.38c-10.5,0-20.53,4.56-26.92,12.32-6.08,7.45-9.58,16.73-9.58,25.71,0,21.14,15.21,36.96,35.59,36.96s37.42-16.43,37.42-37.57-16.43-37.42-36.5-37.42ZM180.21,319.31c-8.21,0-14.45-6.69-14.45-15.67s6.91-15.57,15.58-14.85c6.57.54,12.11,5.45,13.54,11.88,2.18,9.84-5.37,18.63-14.68,18.63ZM446.72,285.16c-14.58,38.46-25.59,58.32-44.1,79.7-3.95,4.56-10.9,5.01-15.43,1.03h0c-4.49-3.95-4.95-10.76-1.06-15.3,4.03-4.69,7.95-9.72,10.95-14.1,2.41-3.53,2.55-8.17.33-11.82-7.97-13.12-14.86-27.17-19.28-39.32-2.02-5.56.79-11.71,6.31-13.85l1.72-.67c5.67-2.2,12.06.65,14.16,6.35,2.71,7.34,6.09,15.34,9.14,21.57,1.6,3.27,6.31,3.13,7.72-.23,2.45-5.87,5.28-13.62,7.65-20.99,1.87-5.83,8.12-8.98,13.91-7l1.32.45c5.83,1.99,8.84,8.43,6.66,14.19ZM113.9,227.8c41.82,0,78.42-22.66,98.23-56.34,3.56-6.05,9.98-9.84,16.99-9.84s13.44,3.79,16.99,9.84c19.81,33.68,56.41,56.34,98.23,56.34,64.37,0,116.44-53.68,113.81-118.62C455.78,50.92,408.82,3.3,350.59.17c-44.43-2.39-83.75,20.86-104.52,56.25-3.54,6.02-9.96,9.76-16.94,9.76h-.01c-6.98,0-13.41-3.74-16.94-9.76C191.4,21.03,152.08-2.22,107.65.17,49.42,3.3,2.46,50.92.1,109.18c-2.64,64.95,49.43,118.62,113.81,118.62ZM293.06,68.66c.74-.85,1.51-1.67,2.3-2.48,3.87-3.97,8.22-7.48,12.96-10.42.02-.01.04-.02.05-.03.91-.56,1.83-1.1,2.77-1.62.05-.03.1-.06.14-.08.91-.5,1.83-.98,2.76-1.44.08-.04.16-.08.24-.12.9-.44,1.81-.86,2.73-1.26.12-.05.23-.11.35-.16.89-.38,1.78-.74,2.69-1.08.16-.06.31-.13.47-.19.87-.32,1.75-.62,2.64-.91.2-.06.39-.14.59-.2.85-.27,1.71-.51,2.57-.74.24-.07.48-.14.72-.21.82-.21,1.65-.4,2.49-.58.29-.06.58-.14.87-.2.8-.17,1.61-.3,2.41-.44.33-.06.66-.13,1-.18.79-.12,1.59-.21,2.39-.31.36-.04.72-.1,1.08-.14.84-.09,1.69-.14,2.54-.2.33-.02.65-.06.97-.07,1.18-.06,2.36-.09,3.55-.09,20.41,0,38.72,8.95,51.25,23.13,2.97,3.36.65,8.65-3.84,8.65h-94.82c-4.47,0-6.82-5.27-3.87-8.62ZM282.74,124.18h39.44c2.37,0,4.45,1.67,4.86,4,2.13,12.06,12.66,21.22,25.32,21.22h23.39c12.67,0,23.19-9.16,25.32-21.22.41-2.33,2.49-4,4.86-4,3.19,0,5.59,2.97,4.83,6.07-7.33,29.88-34.29,52.06-66.44,52.06-1.19,0-2.38-.03-3.55-.09-.33-.02-.65-.05-.98-.07-.84-.06-1.69-.11-2.53-.2-.37-.04-.73-.1-1.1-.14-.79-.09-1.58-.19-2.37-.31-.34-.05-.67-.12-1.01-.18-.81-.14-1.61-.27-2.41-.44-.29-.06-.57-.13-.86-.2-.84-.18-1.68-.37-2.5-.59-.24-.06-.48-.14-.73-.21-.86-.23-1.72-.48-2.57-.74-.2-.06-.39-.13-.59-.2-.89-.29-1.77-.59-2.65-.91-.15-.06-.3-.12-.45-.18-.91-.35-1.82-.7-2.71-1.09-.11-.05-.22-.1-.33-.15-.93-.41-1.85-.83-2.76-1.27-.07-.03-.14-.07-.21-.11-.94-.47-1.87-.95-2.79-1.46-.05-.03-.09-.05-.14-.08-.94-.52-1.86-1.06-2.77-1.63-.02-.01-.04-.03-.06-.04-.93-.58-1.85-1.18-2.76-1.8,0,0,0,0,0,0-3.67-2.54-7.09-5.42-10.19-8.61h0c-8.36-8.58-14.49-19.34-17.44-31.35-.76-3.1,1.64-6.09,4.83-6.09ZM61.27,70.24c12.54-15.11,31.46-24.74,52.64-24.74,1.19,0,2.38.03,3.55.09.33.02.65.05.97.07.85.06,1.7.11,2.54.2.36.04.72.09,1.08.14.8.09,1.6.19,2.39.31.34.05.67.12,1,.18.81.14,1.62.27,2.41.44.29.06.58.14.87.2.83.18,1.67.37,2.49.58.24.06.48.14.72.21.86.24,1.72.48,2.57.74.2.06.39.13.59.2.89.29,1.77.59,2.64.91.16.06.32.13.48.19.9.34,1.8.7,2.68,1.08.12.05.23.11.35.16.92.4,1.83.82,2.73,1.26.08.04.16.08.24.12.93.46,1.85.94,2.76,1.44.05.03.1.06.14.08.94.52,1.86,1.06,2.77,1.62.02.01.04.03.06.04.93.58,1.85,1.18,2.75,1.8,0,0,0,0,0,0,3.67,2.54,7.08,5.42,10.19,8.61,0,0,0,0,0,0,1.28,1.31,2.5,2.67,3.67,4.08,2.31,2.79.35,7.01-3.28,7.01h-98.76c-3.64,0-5.58-4.23-3.25-7.03ZM52.42,124.18h39.04c2.42,0,4.53,1.7,4.95,4.08,2.16,12.02,12.67,21.14,25.31,21.14h23.39c12.64,0,23.15-9.12,25.31-21.14.43-2.38,2.54-4.08,4.95-4.08h0c3.26,0,5.71,3.05,4.92,6.21-2.97,11.97-9.08,22.69-17.42,31.24h0c-3.11,3.19-6.52,6.07-10.19,8.61l-.95.74c-.31.24-1.47.86-1.81,1.07-.02.01-.04.03-.06.04-.91.56-1.84,1.11-2.77,1.63-.05.03-.09.05-.14.08-.92.51-1.85.99-2.79,1.46-.07.03-.14.07-.21.11-.91.44-1.83.87-2.76,1.27-.11.05-.22.1-.33.15-.89.38-1.79.74-2.7,1.09-.15.06-.3.12-.46.18-.87.32-1.75.62-2.64.91-.2.06-.39.14-.59.2-.85.27-1.71.51-2.57.74-.24.07-.48.14-.73.21-.83.22-1.66.4-2.5.59-.29.06-.57.14-.86.2-.8.16-1.6.3-2.41.44-.34.06-.67.13-1.01.18-.78.12-1.57.21-2.37.31-.37.04-.73.1-1.1.14-.84.09-1.68.14-2.53.2-.33.02-.65.06-.98.07-1.18.06-2.36.09-3.55.09-32.05,0-58.95-22.04-66.37-51.79-.8-3.21,1.58-6.33,4.89-6.33Z"/></svg>